M48
;DRILL file {KiCad 4.0.7} date Mon Jun 25 23:03:15 2018
;FORMAT={-:-/ absolute / inch / decimal}
FMAT,2
INCH,TZ
T1C0.016
T2C0.039
%
G90
G05
M72
T1
X4.8311Y-4.6311
X4.9102Y-4.7169
X4.9458Y-4.2251
X5.028Y-5.1776
X5.06Y-5.25
X5.0744Y-5.0984
X5.1622Y-4.2272
X5.1665Y-5.0224
X5.1909Y-4.3362
X5.296Y-4.822
X5.31Y-5.22
X5.465Y-4.8598
X5.53Y-4.7828
X5.6496Y-5.0972
X5.66Y-4.0633
X5.6606Y-4.4087
X5.7457Y-4.7984
X5.7772Y-4.8224
X5.8264Y-5.1591
X5.887Y-4.1835
X5.9028Y-4.3295
X6.0094Y-4.5606
X6.1071Y-4.3209
X6.1425Y-4.1283
X6.17Y-4.7067
X6.1902Y-4.4004
X6.236Y-4.944
X6.24Y-4.98
X6.27Y-4.86
X6.28Y-4.98
X6.2945Y-4.5209
X6.34Y-5.148
X6.3457Y-4.0598
X6.412Y-5.068
X6.418Y-5.138
X6.4559Y-4.2551
X6.53Y-5.
X6.54Y-4.97
X6.58Y-4.98
X6.5854Y-4.8713
X6.6331Y-4.3142
X6.6378Y-5.0854
X6.69Y-5.21
X6.7937Y-4.9445
X6.81Y-4.87
X6.95Y-5.04
X7.01Y-4.1974
X7.0165Y-4.948
X7.0764Y-4.3492
X7.0783Y-4.2217
T2
X4.36Y-4.66
X4.36Y-4.76
X4.36Y-4.98
X4.36Y-5.08
X4.71Y-4.86
X4.71Y-4.96
X4.71Y-5.06
X4.71Y-5.16
X6.124Y-5.036
X6.124Y-5.136
X7.015Y-4.4949
X7.015Y-4.5949
T0
M30
