G04 #@! TF.FileFunction,Paste,Top*
%FSLAX46Y46*%
G04 Gerber Fmt 4.6, Leading zero omitted, Abs format (unit mm)*
G04 Created by KiCad (PCBNEW 4.0.7) date Sun Jul  1 21:20:37 2018*
%MOMM*%
%LPD*%
G01*
G04 APERTURE LIST*
%ADD10C,0.100000*%
%ADD11R,1.000000X1.250000*%
%ADD12R,1.250000X1.000000*%
%ADD13R,1.200000X1.200000*%
%ADD14R,0.450000X1.380000*%
%ADD15R,1.475000X2.100000*%
%ADD16R,2.375000X1.900000*%
%ADD17R,1.175000X1.900000*%
%ADD18R,0.700000X1.300000*%
%ADD19R,1.300000X0.700000*%
%ADD20R,0.300000X0.300000*%
%ADD21R,0.300000X0.900000*%
%ADD22R,0.900000X0.300000*%
%ADD23R,1.800000X1.800000*%
%ADD24R,0.200000X0.800000*%
%ADD25R,0.800000X0.200000*%
%ADD26R,2.500000X1.100000*%
%ADD27O,2.500000X1.100000*%
%ADD28O,1.100000X2.500000*%
%ADD29R,0.990000X1.300000*%
%ADD30R,0.590000X1.300000*%
G04 APERTURE END LIST*
D10*
G36*
X171795440Y-98736371D02*
X168542749Y-95483680D01*
X171795440Y-92230989D01*
X175048131Y-95483680D01*
X171795440Y-98736371D01*
X171795440Y-98736371D01*
G37*
G36*
X164693600Y-98761567D02*
X161405553Y-95473520D01*
X164693600Y-92185473D01*
X167981647Y-95473520D01*
X164693600Y-98761567D01*
X164693600Y-98761567D01*
G37*
G36*
X157642560Y-98771727D02*
X154354513Y-95483680D01*
X157642560Y-92195633D01*
X160930607Y-95483680D01*
X157642560Y-98771727D01*
X157642560Y-98771727D01*
G37*
G36*
X150591520Y-98771727D02*
X147303473Y-95483680D01*
X150591520Y-92195633D01*
X153879567Y-95483680D01*
X150591520Y-98771727D01*
X150591520Y-98771727D01*
G37*
G36*
X143540480Y-98771727D02*
X140252433Y-95483680D01*
X143540480Y-92195633D01*
X146828527Y-95483680D01*
X143540480Y-98771727D01*
X143540480Y-98771727D01*
G37*
G36*
X136448800Y-98796922D02*
X133125398Y-95473520D01*
X136448800Y-92150118D01*
X139772202Y-95473520D01*
X136448800Y-98796922D01*
X136448800Y-98796922D01*
G37*
G36*
X129362200Y-98796922D02*
X126038798Y-95473520D01*
X129362200Y-92150118D01*
X132685602Y-95473520D01*
X129362200Y-98796922D01*
X129362200Y-98796922D01*
G37*
G36*
X122275600Y-98847722D02*
X118952198Y-95524320D01*
X122275600Y-92200918D01*
X125599002Y-95524320D01*
X122275600Y-98847722D01*
X122275600Y-98847722D01*
G37*
G36*
X115224560Y-98786762D02*
X111901158Y-95463360D01*
X115224560Y-92139958D01*
X118547962Y-95463360D01*
X115224560Y-98786762D01*
X115224560Y-98786762D01*
G37*
G36*
X164954600Y-99033600D02*
X168244600Y-95733600D01*
X168254600Y-95733600D01*
X171544600Y-99033600D01*
X164954600Y-99033600D01*
X164954600Y-99033600D01*
G37*
G36*
X172036120Y-99043760D02*
X175326120Y-95743760D01*
X175336120Y-95743760D01*
X178626120Y-99043760D01*
X172036120Y-99043760D01*
X172036120Y-99043760D01*
G37*
G36*
X157918800Y-99003120D02*
X161208800Y-95703120D01*
X161218800Y-95703120D01*
X164508800Y-99003120D01*
X157918800Y-99003120D01*
X157918800Y-99003120D01*
G37*
G36*
X150816960Y-98987880D02*
X154106960Y-95687880D01*
X154116960Y-95687880D01*
X157406960Y-98987880D01*
X150816960Y-98987880D01*
X150816960Y-98987880D01*
G37*
G36*
X143730360Y-99033600D02*
X147020360Y-95733600D01*
X147030360Y-95733600D01*
X150320360Y-99033600D01*
X143730360Y-99033600D01*
X143730360Y-99033600D01*
G37*
G36*
X136689480Y-99008200D02*
X139979480Y-95708200D01*
X139989480Y-95708200D01*
X143279480Y-99008200D01*
X136689480Y-99008200D01*
X136689480Y-99008200D01*
G37*
G36*
X129572400Y-98998040D02*
X132862400Y-95698040D01*
X132872400Y-95698040D01*
X136162400Y-98998040D01*
X129572400Y-98998040D01*
X129572400Y-98998040D01*
G37*
G36*
X122516280Y-99003120D02*
X125806280Y-95703120D01*
X125816280Y-95703120D01*
X129106280Y-99003120D01*
X122516280Y-99003120D01*
X122516280Y-99003120D01*
G37*
G36*
X115450000Y-99064080D02*
X118740000Y-95764080D01*
X118750000Y-95764080D01*
X122040000Y-99064080D01*
X115450000Y-99064080D01*
X115450000Y-99064080D01*
G37*
G36*
X108388800Y-99018360D02*
X111678800Y-95718360D01*
X111688800Y-95718360D01*
X114978800Y-99018360D01*
X108388800Y-99018360D01*
X108388800Y-99018360D01*
G37*
G36*
X178886120Y-98778680D02*
X175586120Y-95488680D01*
X175586120Y-95478680D01*
X178886120Y-92188680D01*
X178886120Y-98778680D01*
X178886120Y-98778680D01*
G37*
G36*
X114953400Y-91959160D02*
X111663400Y-95259160D01*
X111653400Y-95259160D01*
X108363400Y-91959160D01*
X114953400Y-91959160D01*
X114953400Y-91959160D01*
G37*
G36*
X122075560Y-91949000D02*
X118785560Y-95249000D01*
X118775560Y-95249000D01*
X115485560Y-91949000D01*
X122075560Y-91949000D01*
X122075560Y-91949000D01*
G37*
G36*
X129136760Y-91938840D02*
X125846760Y-95238840D01*
X125836760Y-95238840D01*
X122546760Y-91938840D01*
X129136760Y-91938840D01*
X129136760Y-91938840D01*
G37*
G36*
X136223360Y-91984560D02*
X132933360Y-95284560D01*
X132923360Y-95284560D01*
X129633360Y-91984560D01*
X136223360Y-91984560D01*
X136223360Y-91984560D01*
G37*
G36*
X143233760Y-91984560D02*
X139943760Y-95284560D01*
X139933760Y-95284560D01*
X136643760Y-91984560D01*
X143233760Y-91984560D01*
X143233760Y-91984560D01*
G37*
G36*
X150305120Y-91984560D02*
X147015120Y-95284560D01*
X147005120Y-95284560D01*
X143715120Y-91984560D01*
X150305120Y-91984560D01*
X150305120Y-91984560D01*
G37*
G36*
X157442520Y-91954080D02*
X154152520Y-95254080D01*
X154142520Y-95254080D01*
X150852520Y-91954080D01*
X157442520Y-91954080D01*
X157442520Y-91954080D01*
G37*
G36*
X164483400Y-91923600D02*
X161193400Y-95223600D01*
X161183400Y-95223600D01*
X157893400Y-91923600D01*
X164483400Y-91923600D01*
X164483400Y-91923600D01*
G37*
G36*
X171554760Y-91949000D02*
X168264760Y-95249000D01*
X168254760Y-95249000D01*
X164964760Y-91949000D01*
X171554760Y-91949000D01*
X171554760Y-91949000D01*
G37*
G36*
X178626120Y-91949000D02*
X175336120Y-95249000D01*
X175326120Y-95249000D01*
X172036120Y-91949000D01*
X178626120Y-91949000D01*
X178626120Y-91949000D01*
G37*
D11*
X170418000Y-127762000D03*
X168418000Y-127762000D03*
X170418000Y-125730000D03*
X168418000Y-125730000D03*
X170418000Y-123698000D03*
X168418000Y-123698000D03*
X170418000Y-121666000D03*
X168418000Y-121666000D03*
D12*
X168140000Y-114720000D03*
X168140000Y-112720000D03*
X159760000Y-114770000D03*
X159760000Y-112770000D03*
X161770000Y-114770000D03*
X161770000Y-112770000D03*
X163950000Y-114770000D03*
X163950000Y-112770000D03*
X166020000Y-114770000D03*
X166020000Y-112770000D03*
D13*
X159258000Y-119550000D03*
X159258000Y-121750000D03*
X156718000Y-119550000D03*
X156718000Y-121750000D03*
X125624000Y-103404000D03*
X125624000Y-101204000D03*
X143764000Y-103208000D03*
X143764000Y-101008000D03*
X161320000Y-103020000D03*
X161320000Y-100820000D03*
X178054000Y-102700000D03*
X178054000Y-100500000D03*
D14*
X161717200Y-132264800D03*
X162367200Y-132264800D03*
X163017200Y-132264800D03*
X163667200Y-132264800D03*
X164317200Y-132264800D03*
D15*
X160554700Y-132624800D03*
X165479700Y-132624800D03*
D16*
X160107200Y-134924800D03*
X165927200Y-134924800D03*
D17*
X162177200Y-134924800D03*
X163857200Y-134924800D03*
D18*
X174310000Y-127762000D03*
X176210000Y-127762000D03*
X174310000Y-125730000D03*
X176210000Y-125730000D03*
X174310000Y-123698000D03*
X176210000Y-123698000D03*
D19*
X153090000Y-114740000D03*
X153090000Y-112840000D03*
X155040000Y-114740000D03*
X155040000Y-112840000D03*
X125624000Y-107318000D03*
X125624000Y-105418000D03*
X143764000Y-114996000D03*
X143764000Y-113096000D03*
X157200000Y-114720000D03*
X157200000Y-112820000D03*
D18*
X146746000Y-131064000D03*
X144846000Y-131064000D03*
D19*
X178054000Y-106614000D03*
X178054000Y-104714000D03*
D20*
X161462400Y-127234000D03*
D21*
X161962400Y-127534000D03*
X162462400Y-127534000D03*
X162962400Y-127534000D03*
X163462400Y-127534000D03*
D20*
X163962400Y-127234000D03*
D22*
X164262400Y-126734000D03*
X164262400Y-126234000D03*
X164262400Y-125734000D03*
X164262400Y-125234000D03*
D20*
X163962400Y-124734000D03*
D21*
X163462400Y-124434000D03*
X162962400Y-124434000D03*
X162462400Y-124434000D03*
X161962400Y-124434000D03*
D20*
X161462400Y-124734000D03*
D22*
X161162400Y-125234000D03*
X161162400Y-125734000D03*
X161162400Y-126234000D03*
X161162400Y-126734000D03*
D23*
X162712400Y-125984000D03*
D24*
X162376000Y-109900000D03*
X162776000Y-109900000D03*
X163176000Y-109900000D03*
X163576000Y-109900000D03*
X163976000Y-109900000D03*
X164376000Y-109900000D03*
X164776000Y-109900000D03*
D25*
X165526000Y-109150000D03*
X165526000Y-108750000D03*
X165526000Y-108350000D03*
X165526000Y-107950000D03*
X165526000Y-107550000D03*
X165526000Y-107150000D03*
X165526000Y-106750000D03*
D24*
X164776000Y-106000000D03*
X164376000Y-106000000D03*
X163976000Y-106000000D03*
X163576000Y-106000000D03*
X163176000Y-106000000D03*
X162776000Y-106000000D03*
X162376000Y-106000000D03*
D25*
X161626000Y-106750000D03*
X161626000Y-107150000D03*
X161626000Y-107550000D03*
X161626000Y-107950000D03*
X161626000Y-108350000D03*
X161626000Y-108750000D03*
X161626000Y-109150000D03*
D26*
X141162000Y-135483600D03*
D27*
X141162000Y-133483600D03*
X141162000Y-131483600D03*
X141162000Y-129483600D03*
X141162000Y-127483600D03*
X141162000Y-125483600D03*
X141162000Y-123483600D03*
X141162000Y-121483600D03*
X125762000Y-121483600D03*
X125862000Y-123483600D03*
X125762000Y-125483600D03*
X125762000Y-127483600D03*
X125762000Y-129483600D03*
X125762000Y-131483600D03*
X125762000Y-133483600D03*
X125762000Y-135483600D03*
D28*
X138472000Y-119783600D03*
X136472000Y-119783600D03*
X134472000Y-119783600D03*
X132472000Y-119783600D03*
X130472000Y-119783600D03*
X128472000Y-119783600D03*
D29*
X172718000Y-130293000D03*
D30*
X170998000Y-130293000D03*
X170998000Y-132343000D03*
X172918000Y-132343000D03*
D12*
X140462000Y-117179600D03*
X140462000Y-115179600D03*
X138430000Y-117179600D03*
X138430000Y-115179600D03*
M02*
