G04 #@! TF.FileFunction,Paste,Top*
%FSLAX46Y46*%
G04 Gerber Fmt 4.6, Leading zero omitted, Abs format (unit mm)*
G04 Created by KiCad (PCBNEW 4.0.7) date Tue Jul 17 19:33:22 2018*
%MOMM*%
%LPD*%
G01*
G04 APERTURE LIST*
%ADD10C,0.100000*%
%ADD11R,1.000000X1.250000*%
%ADD12R,1.250000X1.000000*%
%ADD13R,1.200000X1.200000*%
%ADD14R,0.450000X1.380000*%
%ADD15R,1.475000X2.100000*%
%ADD16R,2.375000X1.900000*%
%ADD17R,1.175000X1.900000*%
%ADD18R,0.700000X1.300000*%
%ADD19R,1.300000X0.700000*%
%ADD20R,0.300000X0.300000*%
%ADD21R,0.300000X0.900000*%
%ADD22R,0.900000X0.300000*%
%ADD23R,1.800000X1.800000*%
%ADD24R,0.200000X0.800000*%
%ADD25R,0.800000X0.200000*%
%ADD26R,2.500000X1.100000*%
%ADD27O,2.500000X1.100000*%
%ADD28O,1.100000X2.500000*%
%ADD29R,0.990000X1.300000*%
%ADD30R,0.590000X1.300000*%
G04 APERTURE END LIST*
D10*
D11*
X170418000Y-127762000D03*
X168418000Y-127762000D03*
X170418000Y-125730000D03*
X168418000Y-125730000D03*
X170418000Y-123698000D03*
X168418000Y-123698000D03*
X170418000Y-121666000D03*
X168418000Y-121666000D03*
D12*
X168140000Y-114720000D03*
X168140000Y-112720000D03*
X159760000Y-114770000D03*
X159760000Y-112770000D03*
X161770000Y-114770000D03*
X161770000Y-112770000D03*
X163950000Y-114770000D03*
X163950000Y-112770000D03*
X166020000Y-114770000D03*
X166020000Y-112770000D03*
D13*
X159258000Y-119550000D03*
X159258000Y-121750000D03*
X156718000Y-119550000D03*
X156718000Y-121750000D03*
X125624000Y-103404000D03*
X125624000Y-101204000D03*
X143764000Y-103208000D03*
X143764000Y-101008000D03*
X161320000Y-103020000D03*
X161320000Y-100820000D03*
X178054000Y-102700000D03*
X178054000Y-100500000D03*
D14*
X161717200Y-132264800D03*
X162367200Y-132264800D03*
X163017200Y-132264800D03*
X163667200Y-132264800D03*
X164317200Y-132264800D03*
D15*
X160554700Y-132624800D03*
X165479700Y-132624800D03*
D16*
X160107200Y-134924800D03*
X165927200Y-134924800D03*
D17*
X162177200Y-134924800D03*
X163857200Y-134924800D03*
D18*
X174310000Y-127762000D03*
X176210000Y-127762000D03*
X174310000Y-125730000D03*
X176210000Y-125730000D03*
X174310000Y-123698000D03*
X176210000Y-123698000D03*
D19*
X153090000Y-114740000D03*
X153090000Y-112840000D03*
X155040000Y-114740000D03*
X155040000Y-112840000D03*
X125624000Y-107318000D03*
X125624000Y-105418000D03*
X143764000Y-114996000D03*
X143764000Y-113096000D03*
X157200000Y-114720000D03*
X157200000Y-112820000D03*
D18*
X146746000Y-131064000D03*
X144846000Y-131064000D03*
D19*
X178054000Y-106614000D03*
X178054000Y-104714000D03*
D20*
X161462400Y-127234000D03*
D21*
X161962400Y-127534000D03*
X162462400Y-127534000D03*
X162962400Y-127534000D03*
X163462400Y-127534000D03*
D20*
X163962400Y-127234000D03*
D22*
X164262400Y-126734000D03*
X164262400Y-126234000D03*
X164262400Y-125734000D03*
X164262400Y-125234000D03*
D20*
X163962400Y-124734000D03*
D21*
X163462400Y-124434000D03*
X162962400Y-124434000D03*
X162462400Y-124434000D03*
X161962400Y-124434000D03*
D20*
X161462400Y-124734000D03*
D22*
X161162400Y-125234000D03*
X161162400Y-125734000D03*
X161162400Y-126234000D03*
X161162400Y-126734000D03*
D23*
X162712400Y-125984000D03*
D24*
X162376000Y-109900000D03*
X162776000Y-109900000D03*
X163176000Y-109900000D03*
X163576000Y-109900000D03*
X163976000Y-109900000D03*
X164376000Y-109900000D03*
X164776000Y-109900000D03*
D25*
X165526000Y-109150000D03*
X165526000Y-108750000D03*
X165526000Y-108350000D03*
X165526000Y-107950000D03*
X165526000Y-107550000D03*
X165526000Y-107150000D03*
X165526000Y-106750000D03*
D24*
X164776000Y-106000000D03*
X164376000Y-106000000D03*
X163976000Y-106000000D03*
X163576000Y-106000000D03*
X163176000Y-106000000D03*
X162776000Y-106000000D03*
X162376000Y-106000000D03*
D25*
X161626000Y-106750000D03*
X161626000Y-107150000D03*
X161626000Y-107550000D03*
X161626000Y-107950000D03*
X161626000Y-108350000D03*
X161626000Y-108750000D03*
X161626000Y-109150000D03*
D26*
X141162000Y-135483600D03*
D27*
X141162000Y-133483600D03*
X141162000Y-131483600D03*
X141162000Y-129483600D03*
X141162000Y-127483600D03*
X141162000Y-125483600D03*
X141162000Y-123483600D03*
X141162000Y-121483600D03*
X125762000Y-121483600D03*
X125862000Y-123483600D03*
X125762000Y-125483600D03*
X125762000Y-127483600D03*
X125762000Y-129483600D03*
X125762000Y-131483600D03*
X125762000Y-133483600D03*
X125762000Y-135483600D03*
D28*
X138472000Y-119783600D03*
X136472000Y-119783600D03*
X134472000Y-119783600D03*
X132472000Y-119783600D03*
X130472000Y-119783600D03*
X128472000Y-119783600D03*
D29*
X172718000Y-130293000D03*
D30*
X170998000Y-130293000D03*
X170998000Y-132343000D03*
X172918000Y-132343000D03*
D12*
X140462000Y-117179600D03*
X140462000Y-115179600D03*
X138430000Y-117179600D03*
X138430000Y-115179600D03*
M02*
